name Walk5.mot
datacolumns 19
datarows 12
range 1.56000000 1.61500000
endheader

                time	   L_ground_force_vx	   L_ground_force_vy	   L_ground_force_vz	   L_ground_force_px	   L_ground_force_py	   L_ground_force_pz	   R_ground_force_vx	   R_ground_force_vy	   R_ground_force_vz	   R_ground_force_px	   R_ground_force_py	   R_ground_force_pz	   L_ground_torque_x	   L_ground_torque_y	   L_ground_torque_z	   R_ground_torque_x	   R_ground_torque_y	   R_ground_torque_z	
          1.56000000	         -0.02852211	          0.43941163	         -0.05437851	          0.00042339	          0.00000000	          0.00034554	         18.47413559	        660.33402057	        -13.24734623	         -0.16992092	          0.00000000	          0.34574829	          0.00000000	          0.00026518	          0.00000000	          0.00000000	          2.61971210	          0.00000000	
          1.56500000	         -0.03947143	          0.52030077	         -0.06144307	          0.00046065	          0.00000000	          0.00037220	         20.17361628	        670.16456502	        -13.15530327	         -0.16765387	          0.00000000	          0.34554109	          0.00000000	          0.00029545	          0.00000000	          0.00000000	          2.60408094	          0.00000000	
          1.57000000	         -0.05167763	          0.58226997	         -0.06488175	          0.00046194	          0.00000000	          0.00036787	         22.01920706	        679.95275704	        -13.20273331	         -0.16541457	          0.00000000	          0.34533232	          0.00000000	          0.00030622	          0.00000000	          0.00000000	          2.56473892	          0.00000000	
          1.57500000	         -0.06433843	          0.60709323	         -0.06224222	          0.00040698	          0.00000000	          0.00031576	         24.03703047	        689.66434294	        -13.36412277	         -0.16321877	          0.00000000	          0.34512130	          0.00000000	          0.00028524	          0.00000000	          0.00000000	          2.50310902	          0.00000000	
          1.58000000	         -0.07614669	          0.57093048	         -0.05044998	          0.00027109	          0.00000000	          0.00019555	         26.25284814	        699.27211324	        -13.59940654	         -0.16108443	          0.00000000	          0.34490616	          0.00000000	          0.00021736	          0.00000000	          0.00000000	          2.42249889	          0.00000000	
          1.58500000	         -0.08516922	          0.44412727	         -0.02583949	          0.00002576	          0.00000000	         -0.00001601	         28.69096008	        708.75190559	        -13.85683654	         -0.15902833	          0.00000000	          0.34468493	          0.00000000	          0.00008470	          0.00000000	          0.00000000	          2.32856608	          0.00000000	
          1.59000000	         -0.08873503	          0.19161955	          0.01572434	         -0.00035999	          0.00000000	         -0.00034395	         31.37295144	        718.07643462	        -14.07760081	         -0.15706449	          0.00000000	          0.34445725	          0.00000000	         -0.00013262	          0.00000000	          0.00000000	          2.22854344	          0.00000000	
          1.59500000	         -0.08335195	         -0.22576795	          0.07859888	         -0.00091713	          0.00000000	         -0.00081291	         34.31505080	        727.21412202	        -14.20226518	         -0.15520536	          0.00000000	          0.34422247	          0.00000000	         -0.00045514	          0.00000000	          0.00000000	          2.13027355	          0.00000000	
          1.60000000	         -0.06467804	         -0.84879000	          0.16695071	         -0.00167280	          0.00000000	         -0.00144394	         37.52629360	        736.12872714	        -14.17817089	         -0.15346106	          0.00000000	          0.34397950	          0.00000000	         -0.00090195	          0.00000000	          0.00000000	          2.04098525	          0.00000000	
          1.60500000	         -0.02758172	         -1.71563832	          0.28413505	         -0.00264488	          0.00000000	         -0.00224987	         41.00733097	        744.77610668	        -13.96454045	         -0.15183899	          0.00000000	          0.34372724	          0.00000000	         -0.00148746	          0.00000000	          0.00000000	          1.96624296	          0.00000000	
          1.61000000	          0.03366714	         -2.85579761	          0.43182811	         -0.00383454	          0.00000000	         -0.00322916	         44.74965593	        753.09994535	        -13.53607059	         -0.15034334	          0.00000000	          0.34346581	          0.00000000	         -0.00221704	          0.00000000	          0.00000000	          1.90977847	          0.00000000	
          1.61500000	          0.12502526	         -4.28153885	          0.60888114	         -0.00521676	          0.00000000	         -0.00435800	         48.73733085	        761.03239231	        -12.88634253	         -0.14897582	          0.00000000	          0.34319815	          0.00000000	         -0.00308131	          0.00000000	          0.00000000	          1.87297063	          0.00000000	
